<?xml version="1.0" standalone="no"?>
<!DOCTYPE svg PUBLIC "-//W3C//DTD SVG 20010904//EN"
 "http://www.w3.org/TR/2001/REC-SVG-20010904/DTD/svg10.dtd">
<svg version="1.0" xmlns="http://www.w3.org/2000/svg"
 width="350.000000pt" height="407.000000pt" viewBox="0 0 350.000000 407.000000"
 preserveAspectRatio="xMidYMid meet">

<g transform="translate(0.000000,407.000000) scale(0.100000,-0.100000)"
fill="#000000" stroke="none">
<path d="M1602 3754 c-16 -6 -33 -17 -36 -23 -4 -6 -16 -11 -27 -11 -61 0
-121 -74 -164 -200 -14 -40 -32 -81 -40 -90 -32 -35 -47 -95 -55 -227 -6 -95
-13 -141 -24 -158 -24 -37 -87 -75 -113 -69 l-21 6 19 33 c12 20 19 49 18 72
-1 21 6 52 15 68 22 41 20 67 -9 128 -53 113 -149 191 -234 191 -56 -1 -243
-72 -294 -113 -37 -29 -131 -141 -210 -249 -70 -97 -75 -121 -81 -474 l-5
-307 25 -50 c42 -83 124 -146 259 -196 54 -21 95 -28 182 -32 111 -6 111 -6
138 21 15 15 50 36 78 47 29 11 72 32 95 46 l44 25 34 -33 c43 -41 48 -59 29
-95 -23 -44 -19 -96 11 -140 38 -56 27 -77 -80 -148 -58 -39 -110 -85 -153
-135 -101 -118 -106 -132 -111 -296 -4 -129 -6 -141 -26 -154 -47 -33 -140
-128 -151 -156 -7 -16 -16 -74 -20 -127 -6 -82 -4 -110 16 -191 l22 -94 -23
-33 c-16 -22 -25 -52 -28 -89 -3 -39 -12 -66 -29 -89 -44 -58 -54 -95 -43
-153 19 -99 54 -125 155 -115 33 3 92 8 130 11 39 2 88 6 110 8 22 2 107 8
188 12 127 7 153 11 180 29 40 27 57 60 57 113 0 73 -77 134 -150 120 -21 -5
-38 1 -70 24 -22 16 -43 36 -46 43 -9 24 23 73 91 138 76 75 108 140 130 265
8 47 15 95 15 107 1 15 13 27 43 41 48 23 103 87 212 251 84 127 91 132 220
140 114 8 149 -6 198 -79 21 -32 57 -71 80 -88 61 -45 152 -89 184 -89 l27 0
-41 -39 c-42 -41 -47 -54 -59 -166 -7 -72 5 -108 65 -188 23 -30 41 -60 41
-67 0 -7 -15 -36 -32 -64 -30 -47 -33 -56 -31 -124 2 -83 11 -98 79 -138 23
-14 64 -49 92 -79 28 -30 55 -55 59 -55 4 -1 28 -5 53 -10 44 -9 144 -2 310
21 41 6 94 13 118 15 81 8 132 54 132 118 0 38 -43 82 -88 90 -37 5 -153 74
-234 138 -49 39 -49 57 6 166 47 94 96 222 96 251 0 10 10 40 21 67 25 55 24
62 -30 238 -59 196 -79 234 -161 316 -85 85 -188 148 -314 193 -78 27 -118 53
-137 89 -7 12 -2 27 16 53 46 68 45 150 -2 205 l-26 32 25 24 24 25 66 -31
c137 -64 296 -75 427 -30 62 22 66 22 111 6 66 -24 93 -14 141 50 22 29 57 61
77 72 45 23 96 103 111 174 15 69 13 221 -3 300 -26 119 -115 378 -146 423
-60 87 -192 177 -315 214 -150 46 -291 37 -361 -23 -49 -42 -103 -132 -120
-198 -15 -57 -3 -104 34 -130 11 -7 24 -26 27 -41 9 -35 54 -68 125 -95 54
-20 54 -20 25 -27 -16 -4 -36 -9 -43 -11 -8 -2 -47 12 -87 32 -71 35 -77 36
-158 32 l-84 -4 -13 34 c-11 32 -10 36 13 56 14 11 30 31 36 43 26 52 3 144
-45 182 -16 13 -24 29 -24 50 0 19 -11 42 -29 64 -28 31 -29 36 -20 76 8 34 6
48 -6 67 -27 41 -116 83 -310 144 -105 34 -139 39 -173 24z m49 -53 c-11 -7
-10 -11 5 -20 16 -9 14 -10 -11 -5 -37 8 -39 10 -30 23 3 6 16 11 28 11 16 0
18 -3 8 -9z m-111 -49 c0 -4 24 -13 53 -20 92 -21 206 -72 232 -104 31 -37 32
-56 3 -34 -61 43 -84 51 -153 50 -72 0 -154 -22 -214 -56 -18 -10 -35 -17 -37
-15 -9 9 40 117 68 151 28 34 48 46 48 28z m275 -32 c95 -43 108 -58 115 -129
7 -70 0 -68 -25 9 -22 68 -56 101 -135 130 -33 12 -60 24 -60 27 0 7 39 -7
105 -37z m190 -124 c-4 -26 -9 -46 -10 -44 -1 2 -6 30 -10 63 -6 56 -5 59 10
44 13 -13 15 -26 10 -63z m-238 3 c23 -11 63 -44 89 -72 39 -43 48 -49 63 -40
13 8 22 8 29 1 6 -6 16 -7 24 -2 7 5 20 7 30 6 9 -2 23 7 31 19 16 21 37 19
37 -5 0 -23 -34 -43 -83 -51 -27 -3 -66 -13 -87 -20 -35 -12 -41 -12 -62 4
-34 27 -97 57 -146 71 -60 16 -76 2 -70 -62 3 -26 11 -54 18 -63 21 -25 138
-17 241 17 138 45 217 33 266 -41 28 -41 29 -71 4 -102 -17 -21 -20 -22 -52
-8 -50 21 -220 16 -359 -10 -125 -23 -201 -27 -231 -10 -11 5 -27 28 -35 50
-15 35 -34 53 -34 30 0 -43 85 -152 135 -173 35 -15 159 -17 371 -4 162 9 178
6 155 -38 -18 -32 -71 -65 -129 -78 -29 -7 -52 -16 -52 -20 0 -13 43 -9 94 8
26 9 50 14 52 11 6 -6 -74 -67 -88 -67 -4 0 -8 -4 -8 -10 0 -21 29 -8 92 39
75 57 120 78 187 87 55 7 145 -15 182 -45 l23 -18 -29 -26 c-44 -37 -24 -44
25 -8 72 52 199 63 266 22 24 -14 27 -23 30 -76 3 -67 23 -137 41 -142 8 -3 7
9 -3 43 -24 80 -18 140 21 223 19 40 33 76 30 80 -8 15 24 48 52 54 20 4 36
18 51 46 27 48 16 55 -16 11 -30 -39 -57 -41 -47 -2 5 22 4 25 -6 15 -20 -20
-37 -15 -54 15 l-15 27 2 -30 c2 -17 -3 -35 -12 -42 -12 -10 -9 -12 23 -13 42
0 46 -9 17 -35 -18 -16 -24 -16 -77 -4 -56 13 -58 15 -55 44 2 17 16 59 33 94
16 35 27 66 25 68 -10 10 -60 -71 -76 -124 -20 -65 -41 -77 -79 -46 -21 17
-21 20 -7 65 8 26 26 68 40 93 27 45 23 60 -7 27 -21 -23 -67 -122 -67 -144 0
-22 -28 -23 -58 -2 -27 19 -23 44 19 123 34 64 37 81 9 56 -26 -23 -70 -113
-70 -142 0 -13 -6 -23 -14 -23 -23 0 -66 41 -66 63 0 28 51 137 86 182 63 83
249 80 424 -6 105 -52 209 -150 233 -219 115 -336 139 -521 85 -666 -21 -58
-42 -80 -102 -109 -22 -11 -41 -27 -41 -36 -1 -33 -34 -69 -65 -69 -42 0 -80
19 -73 38 4 8 2 13 -3 10 -5 -2 -36 -17 -69 -33 -110 -53 -289 -46 -427 17
-38 17 -68 35 -68 40 0 5 7 20 16 33 21 32 39 256 25 297 -6 15 -22 43 -36 62
-31 41 -132 113 -143 102 -4 -5 4 -15 18 -24 50 -32 119 -111 131 -150 8 -29
9 -67 1 -147 -10 -101 -13 -112 -49 -164 -21 -30 -52 -65 -70 -77 l-32 -21
-93 23 c-51 13 -114 27 -140 30 -27 4 -48 8 -48 11 0 2 7 18 16 35 11 22 18
70 22 154 5 118 4 125 -22 176 -29 58 -72 115 -81 107 -3 -3 13 -41 36 -85
l41 -79 -4 -120 c-4 -146 -18 -181 -76 -190 -20 -4 -112 -25 -203 -47 -116
-28 -177 -39 -200 -34 -22 4 -57 28 -97 64 -63 57 -63 57 -51 90 11 33 10 56
-7 250 -12 132 -24 75 -18 -82 7 -147 6 -156 -16 -201 -28 -58 -106 -122 -216
-176 -90 -44 -110 -48 -99 -21 14 34 19 105 6 98 -6 -4 -11 -18 -11 -31 0 -44
-45 -131 -71 -138 -42 -11 -108 -8 -146 8 -21 9 -39 12 -42 6 -9 -14 -105 26
-173 72 -72 49 -117 101 -127 148 -4 19 -4 162 -1 319 8 346 6 339 147 519
110 141 139 162 277 210 114 40 143 37 206 -16 81 -70 117 -152 90 -204 -16
-29 -32 -22 -65 28 -32 50 -101 111 -112 100 -3 -4 12 -23 35 -42 47 -41 82
-93 82 -124 0 -25 -33 -61 -58 -61 -10 0 -27 18 -41 45 -24 46 -92 115 -112
115 -7 0 9 -23 35 -50 48 -51 76 -103 76 -139 0 -18 -52 -71 -69 -71 -4 0 -13
18 -20 41 -13 42 -97 139 -121 139 -8 0 1 -16 21 -37 47 -49 75 -92 83 -125 9
-39 -34 -88 -79 -88 -19 0 -37 5 -40 10 -3 6 -1 10 6 10 7 0 1 12 -13 28 -14
15 -33 40 -43 55 -25 40 -30 26 -10 -28 10 -25 15 -49 11 -52 -13 -13 -61 22
-76 54 -18 40 -35 43 -26 6 8 -34 59 -83 86 -83 11 0 38 -5 59 -12 31 -10 41
-18 45 -40 3 -17 27 -48 57 -76 59 -54 129 -149 159 -213 14 -32 20 -66 20
-124 1 -66 3 -76 12 -60 7 11 12 49 11 85 0 96 -49 184 -170 311 l-44 45 21
27 c48 60 191 99 292 79 57 -11 102 -40 143 -93 17 -21 33 -38 38 -39 14 0 7
24 -19 57 -14 18 -23 37 -19 42 3 5 28 17 57 27 70 23 134 14 296 -41 126 -42
188 -56 167 -36 -6 4 -80 32 -165 61 -189 65 -255 71 -336 29 -43 -22 -53 -24
-68 -13 -17 12 -15 15 16 43 18 16 35 25 36 20 2 -5 7 -9 12 -9 17 0 32 70 41
194 11 153 21 195 55 236 81 96 280 148 381 99z m-62 -161 c3 -45 1 -48 -21
-48 -27 0 -44 26 -44 70 0 29 2 31 31 28 29 -3 31 -5 34 -50z m53 -26 c6 -2
16 7 21 20 10 23 10 23 10 -4 1 -25 -3 -28 -29 -28 -28 0 -30 2 -29 38 1 35 2
35 8 8 3 -16 12 -31 19 -34z m74 3 c0 -5 -5 -11 -11 -13 -6 -2 -11 4 -11 13 0
9 5 15 11 13 6 -2 11 -8 11 -13z m38 -187 c0 -7 -5 -20 -10 -28 -9 -13 -12
-12 -25 4 -8 10 -12 23 -9 27 8 14 44 10 44 -3z m109 -32 c37 -20 37 -21 -5
-29 -26 -5 -34 -1 -57 28 l-27 34 28 -8 c16 -5 43 -16 61 -25z m131 20 c0 -8
-4 -18 -10 -21 -5 -3 -10 -4 -10 -1 0 2 -3 11 -6 20 -4 11 -1 16 10 16 9 0 16
-6 16 -14z m440 -26 c8 0 24 -7 34 -15 11 -8 37 -15 59 -15 31 0 38 -3 35 -17
-3 -15 -14 -18 -58 -18 -91 0 -198 63 -165 97 3 3 22 -3 43 -13 20 -11 43 -19
52 -19z m-1446 4 c11 -42 -30 -94 -106 -134 -70 -37 -104 -23 -52 22 19 17 34
36 34 43 0 6 15 16 33 21 19 6 40 23 52 41 24 39 31 40 39 7z m710 1 c30 -45
24 -47 -96 -43 -81 3 -122 9 -143 20 l-30 17 45 1 c25 0 72 7 105 14 87 20
101 19 119 -9z m96 -31 c0 -8 -7 -14 -15 -14 -15 0 -21 21 -9 33 10 9 24 -2
24 -19z m177 0 c-9 -9 -28 6 -21 18 4 6 10 6 17 -1 6 -6 8 -13 4 -17z m686
-60 c6 -6 -19 -64 -27 -64 -2 0 -17 5 -35 11 l-32 11 23 23 c22 22 58 32 71
19z m-1863 -85 c0 -9 -62 -31 -68 -25 -2 3 4 16 14 29 15 20 22 22 36 13 10
-6 18 -14 18 -17z m448 -629 c31 -27 62 -50 69 -50 23 0 14 -15 -20 -33 -18
-10 -50 -34 -72 -54 l-39 -36 -15 24 c-9 13 -32 41 -52 62 l-37 37 51 50 c29
27 54 50 55 50 2 0 29 -22 60 -50z m458 -42 c-86 -71 -89 -164 -8 -242 71 -66
192 -43 238 46 22 42 18 116 -8 155 -13 18 -26 33 -30 33 -4 0 -14 14 -23 30
-19 37 -6 38 35 4 106 -89 82 -258 -45 -315 -133 -61 -284 56 -260 202 9 50
58 117 98 134 28 12 32 12 35 -2 2 -8 -12 -29 -32 -45z m142 10 c2 -16 -1 -28
-6 -28 -5 0 -8 10 -8 23 1 16 -5 23 -21 25 -17 3 -23 -2 -23 -17 0 -11 5 -23
10 -26 6 -4 5 -12 -4 -21 -22 -22 -26 -18 -26 32 l0 45 38 -3 c32 -3 37 -7 40
-30z m125 23 c53 -21 76 -173 38 -257 -37 -80 -131 -144 -213 -144 -92 0 -192
64 -229 145 -36 78 -19 218 29 244 38 20 42 11 15 -31 -24 -35 -28 -52 -28
-108 0 -56 4 -73 28 -108 73 -110 218 -133 314 -49 87 77 97 213 21 294 -23
24 -15 29 25 14z m-203 -101 c16 0 45 9 64 19 33 19 35 19 51 1 22 -24 31 -92
16 -128 -15 -36 -59 -62 -106 -62 -29 0 -45 8 -71 34 -29 29 -34 41 -34 79 0
31 7 53 23 73 21 28 22 28 25 6 3 -17 10 -22 32 -22z m399 4 c28 -35 28 -109
1 -144 -15 -20 -21 -22 -31 -13 -15 15 -24 120 -15 158 8 32 19 32 45 -1z
m-784 -59 c44 -43 29 -133 -25 -155 -57 -24 -119 42 -104 109 17 68 84 92 129
46z m-175 -91 c6 -14 10 -43 10 -65 0 -31 -4 -39 -19 -39 -24 0 -39 19 -47 57
-12 60 36 100 56 47z m1117 -214 c85 -30 198 -98 269 -163 72 -66 123 -161
155 -288 10 -42 26 -92 34 -112 26 -62 20 -98 -26 -156 -41 -52 -47 -80 -10
-47 20 18 20 18 10 -20 -6 -22 -37 -98 -70 -170 -76 -169 -77 -191 -10 -255
26 -25 80 -66 120 -89 65 -39 91 -60 57 -47 -8 3 -49 2 -92 -2 -57 -6 -86 -5
-104 5 -33 16 -179 15 -156 -1 14 -10 13 -13 -2 -28 -21 -22 -3 -22 27 0 13 9
44 17 68 17 36 1 49 -4 64 -23 26 -31 24 -64 -5 -98 -23 -26 -30 -28 -111 -32
l-86 -3 -57 60 c-31 33 -75 70 -97 83 -52 30 -55 34 -55 97 0 40 7 65 27 100
20 33 29 42 31 29 2 -9 8 -17 14 -17 7 0 9 17 6 44 -4 33 -19 63 -62 121 -61
85 -66 107 -46 216 8 45 17 61 53 94 25 22 47 52 51 67 5 23 2 27 -26 37 -17
6 -47 11 -66 11 -34 0 -125 43 -169 79 -13 11 -42 48 -67 85 -43 64 -44 66
-34 113 25 119 121 267 193 299 43 19 107 17 172 -6z m-1142 -53 c-47 -29
-187 -195 -210 -250 -8 -20 -18 -74 -21 -121 -7 -82 -6 -87 20 -127 35 -52 45
-44 17 13 -18 39 -19 51 -11 132 10 102 21 121 131 246 108 123 150 126 291
23 101 -74 170 -184 155 -245 -6 -24 -111 -186 -175 -271 -27 -36 -53 -56 -97
-76 -33 -16 -69 -38 -79 -49 -20 -23 -9 -31 13 -9 21 19 7 -122 -19 -206 -18
-58 -33 -81 -92 -145 -125 -135 -134 -168 -65 -237 23 -23 49 -44 57 -47 28
-9 -11 -33 -57 -35 -24 -1 -55 -3 -70 -4 -57 -2 -93 -10 -93 -20 0 -7 12 -8
30 -4 45 10 80 -16 80 -59 0 -40 -12 -52 -62 -61 l-37 -7 1 46 c1 70 -41 106
-102 85 -40 -14 -39 -30 2 -18 45 13 78 -10 78 -55 0 -42 -20 -59 -73 -60
l-41 -1 3 43 c4 56 -18 82 -69 82 -20 0 -45 -7 -56 -15 -17 -13 -15 -14 27 -9
51 7 79 -11 79 -50 0 -39 -35 -60 -96 -60 -67 0 -83 14 -90 80 -6 48 -4 54 40
118 51 75 64 110 47 130 -9 11 -7 22 9 48 24 39 25 74 5 148 -16 61 -19 204
-5 264 9 39 72 114 135 159 l30 22 -18 -29 c-18 -27 -18 -44 1 -32 5 3 17 21
26 40 12 26 16 66 16 178 0 117 3 149 18 176 31 59 116 153 187 207 73 56 106
74 140 74 20 0 20 0 0 -12z m1746 -1317 c33 -18 18 -100 -19 -100 -14 0 -17
10 -17 55 0 57 4 62 36 45z m-145 -25 c31 -47 -7 -105 -68 -105 l-39 0 17 31
c10 21 14 43 9 65 -6 33 -5 34 29 34 27 0 40 -6 52 -25z m85 1 c14 -29 -6 -75
-37 -86 -19 -7 -20 -4 -20 51 1 54 3 59 24 59 14 0 26 -9 33 -24z m102 -57
c-5 -5 -7 7 -4 29 5 34 6 35 9 8 2 -16 0 -32 -5 -37z m-1757 11 c24 0 54 -39
54 -70 0 -51 -38 -80 -104 -80 l-54 0 5 40 c4 27 0 47 -11 65 -16 24 -16 26 6
34 37 14 62 19 76 15 8 -2 20 -4 28 -4z m-147 -40 c21 -11 35 -53 26 -79 -6
-20 -45 -41 -75 -41 -17 0 -18 4 -9 30 8 23 7 37 -5 61 -9 18 -16 33 -16 33 0
7 65 4 79 -4z"/>
<path d="M1955 3200 c20 -22 31 -20 22 5 -4 8 -14 15 -23 15 -16 0 -16 -2 1
-20z"/>
<path d="M2100 3195 c-7 -8 -8 -15 -2 -15 5 0 15 7 22 15 7 8 8 15 2 15 -5 0
-15 -7 -22 -15z"/>
<path d="M2996 2991 c-13 -20 -27 -205 -24 -311 3 -111 4 -114 20 -90 26 39
47 247 34 338 -9 67 -17 84 -30 63z m9 -206 c-4 -53 -10 -94 -12 -91 -3 3 -2
48 2 101 4 53 9 94 12 91 3 -2 2 -48 -2 -101z"/>
<path d="M3093 2965 c32 -207 31 -291 -3 -389 -16 -47 -16 -56 -5 -56 21 0 73
75 86 122 11 43 1 131 -25 223 -34 116 -64 173 -53 100z m54 -292 c-2 -16 -4
-5 -4 22 0 28 2 40 4 28 2 -13 2 -35 0 -50z"/>
<path d="M2860 2928 c-39 -81 -45 -116 -30 -175 6 -26 14 -63 17 -80 9 -56 21
-37 28 45 4 42 12 119 19 170 7 51 9 95 4 98 -4 3 -22 -23 -38 -58z m0 -98
c-6 -42 -8 -47 -9 -20 -1 34 8 84 14 78 2 -2 0 -28 -5 -58z"/>
<path d="M730 2820 c0 -22 14 -45 51 -86 59 -65 111 -143 130 -196 20 -56 33
-46 26 20 -8 93 -55 163 -154 231 -18 12 -33 31 -33 42 0 10 -4 19 -10 19 -5
0 -10 -13 -10 -30z m160 -174 c0 -5 -1 -7 -3 -5 -2 2 -15 22 -31 44 l-27 40
30 -35 c17 -19 31 -39 31 -44z"/>
<path d="M1095 2834 c-43 -22 -74 -53 -96 -96 -33 -65 -22 -65 61 2 34 27 77
59 96 71 19 11 34 25 34 30 0 15 -62 10 -95 -7z m5 -28 c0 -2 -8 -10 -17 -17
-16 -13 -17 -12 -4 4 13 16 21 21 21 13z"/>
<path d="M2535 2821 c-16 -4 -41 -13 -54 -20 -21 -11 -22 -15 -9 -22 9 -5 51
-14 93 -20 43 -6 88 -15 102 -20 13 -5 35 -9 49 -9 64 0 -11 70 -96 89 -25 6
-47 10 -50 10 -3 -1 -18 -4 -35 -8z m132 -46 c15 -9 19 -13 8 -10 -11 4 -42 9
-70 12 -27 3 -57 10 -65 15 -27 17 97 0 127 -17z"/>
<path d="M637 2784 c-12 -13 -7 -127 8 -193 18 -73 60 -158 108 -215 56 -66
59 -37 11 86 -25 62 -59 158 -76 213 -32 104 -40 120 -51 109z m109 -361 c-6
-6 -66 134 -75 177 -18 79 -11 68 34 -55 24 -66 42 -121 41 -122z"/>
<path d="M505 2716 c-4 -25 -5 -102 -4 -173 4 -116 7 -133 32 -185 26 -52 112
-138 138 -138 13 0 13 -1 -46 122 -54 114 -69 171 -90 361 -8 68 -21 74 -30
13z m80 -356 l35 -75 -30 34 c-39 46 -59 107 -65 205 l-5 81 15 -85 c9 -48 30
-117 50 -160z"/>
<path d="M2454 2719 c-10 -17 25 -58 69 -81 31 -16 66 -23 130 -26 139 -7 129
8 -42 66 -88 29 -153 46 -157 41z m161 -77 c-19 -4 -102 25 -110 38 -3 4 25
-2 61 -13 37 -12 59 -24 49 -25z"/>
<path d="M1127 2657 c-77 -60 -78 -62 -53 -70 35 -12 94 18 123 62 22 33 31
72 16 70 -5 0 -43 -28 -86 -62z m43 -12 c0 -2 -10 -9 -22 -15 -22 -11 -22 -10
-4 4 21 17 26 19 26 11z"/>
<path d="M1208 2490 c-22 -23 -57 -46 -87 -57 -28 -10 -51 -20 -51 -24 0 -3 9
-14 20 -24 53 -48 170 37 170 125 0 28 -10 25 -52 -20z m12 -40 c0 -14 -61
-50 -85 -50 -13 0 -5 7 21 19 23 10 45 24 48 30 9 14 16 14 16 1z"/>
<path d="M2490 2493 c0 -16 32 -40 80 -62 59 -27 150 -27 208 -1 54 25 47 39
-15 33 -41 -4 -146 10 -245 33 -16 4 -28 2 -28 -3z m229 -59 c8 -7 -74 -2 -99
6 -16 5 -2 6 35 3 33 -3 62 -7 64 -9z"/>
<path d="M2230 1653 c0 -29 19 -48 105 -109 52 -35 134 -102 183 -149 108
-100 156 -121 200 -88 29 22 38 73 13 81 -9 3 -11 -1 -7 -16 10 -29 -31 -55
-70 -46 -36 9 -53 20 -117 81 -71 66 -152 133 -210 172 -26 18 -58 44 -72 59
-14 15 -25 22 -25 15z"/>
<path d="M2676 1223 c8 -68 12 -79 53 -117 42 -40 51 -25 12 19 -30 35 -34 45
-46 118 -10 62 -27 44 -19 -20z"/>
<path d="M1538 1523 c-60 -50 -131 -129 -200 -220 -23 -30 -49 -58 -60 -64
-25 -13 -23 -28 3 -22 12 3 47 37 78 76 105 130 133 162 184 204 50 41 76 73
60 73 -5 0 -34 -21 -65 -47z"/>
<path d="M1000 1196 c0 -7 -18 -49 -40 -92 -46 -89 -46 -116 -4 -171 31 -41
53 -44 24 -3 -37 51 -36 86 4 170 36 75 44 110 26 110 -5 0 -10 -6 -10 -14z"/>
<path d="M1271 1093 c-16 -13 -24 -35 -30 -75 -8 -63 -18 -78 -68 -109 -29
-18 -38 -20 -60 -10 -32 15 -39 9 -14 -13 29 -26 53 -23 104 14 48 34 51 40
62 120 3 24 13 52 22 62 22 25 11 32 -16 11z"/>
</g>
</svg>
